<svg width="569" height="90" viewBox="0 0 569 90" fill="none" xmlns="http://www.w3.org/2000/svg">
<path fill-rule="evenodd" clip-rule="evenodd" d="M65.6274 61.1808C67.6804 60.7873 67.6952 60.8077 68.8511 62.3973C68.8837 62.4421 68.9172 62.4882 68.9517 62.5356C70.3407 64.4423 71.5014 66.4349 72.0873 68.7485C73.1712 73.0238 72.4055 76.9561 69.8952 80.5299C66.6763 85.1153 62.075 87.6643 56.822 89.184C55.7915 89.4829 54.7372 89.7024 53.6836 89.9218L53.5196 89.9559C52.7297 90.1208 52.2975 89.8305 52.5015 88.9596C53.3156 85.4848 52.5147 82.2145 51.2684 78.997C50.8207 77.8424 51.0709 77.5169 52.3282 77.7654C54.0528 78.1063 55.7271 78.1877 57.3376 77.3102C58.1912 76.8461 58.63 76.1688 58.6278 75.1901C58.6254 74.4149 58.6269 73.6396 58.6284 72.8644C58.6309 71.5528 58.6334 70.2405 58.6169 68.9288C58.6015 67.7434 58.0793 67.1672 56.8988 67.0968C56.1769 67.0529 55.3913 67.0133 54.7265 67.242C50.4938 68.6935 46.2458 68.3922 41.9714 67.5147C37.0519 66.503 32.2531 65.1395 27.8471 62.6433C26.1553 61.6845 25.0911 60.0658 24.1366 58.4889C21.6527 54.3851 22.2627 50.3033 24.6742 46.3689C25.1318 45.623 25.6083 44.8883 26.0849 44.1536C26.6228 43.3242 27.1608 42.4947 27.6715 41.6493C28.5975 40.1164 29.0473 38.4273 29.0473 36.6306C29.0473 36.5452 29.0505 36.4562 29.0538 36.366C29.0657 36.0334 29.0782 35.6847 28.9332 35.4408C27.8875 33.7023 28.9246 32.6245 29.9725 31.5354L29.9737 31.5342C30.027 31.4788 30.0803 31.4233 30.1335 31.3677C30.4454 31.042 30.7558 30.7154 31.0945 30.3589L31.1014 30.3517C31.3277 30.1136 31.5668 29.8621 31.8274 29.5885C31.3512 29.2985 30.8872 29.0231 30.4337 28.754C29.4809 28.1885 28.5749 27.6509 27.7022 27.0638C23.0044 23.9145 20.3669 19.5445 20.0268 13.8419C20.0085 13.5336 19.9909 13.2252 19.9734 12.9168C19.8016 9.90119 19.6298 6.88577 18.7519 3.96282C18.672 3.69768 18.5765 3.43643 18.4811 3.17523C18.3382 2.78435 18.1954 2.39346 18.1047 1.99009C18.091 1.9295 18.0762 1.86594 18.061 1.80037C17.931 1.24237 17.7671 0.53837 18.0125 0.274668C18.3175 -0.0552198 19.1732 -0.0398234 19.7394 0.0723374C22.8442 0.685928 25.7955 1.74817 28.4549 3.49218C34.2147 7.2705 38.2521 12.4168 40.3147 19.0145C40.7337 20.3524 40.8708 21.7861 41.0064 23.2055C41.0313 23.4658 41.0562 23.7262 41.0827 23.9848C41.2692 25.8212 41.6137 26.1775 43.4766 26.1489C44.1382 26.1387 44.8005 26.1422 45.463 26.1457C46.3715 26.1505 47.2804 26.1552 48.1877 26.1247C50.1625 26.0587 50.8668 25.3484 51.0358 23.402C51.8893 13.5912 57.059 6.75807 65.6713 2.43434C67.2517 1.64065 68.979 1.13102 70.6991 0.623493C71.2239 0.468657 71.7482 0.313965 72.2672 0.151511C72.5829 0.052055 72.9512 0.120896 73.3191 0.189663C73.4881 0.221258 73.657 0.252839 73.8207 0.268071C73.802 0.422166 73.7874 0.577365 73.7728 0.732617C73.7413 1.06706 73.7099 1.40175 73.6364 1.72618C73.4602 2.49939 73.2672 3.26979 73.0742 4.04017C72.7001 5.53331 72.326 7.02634 72.0741 8.53947C71.8394 9.94819 71.6782 11.3698 71.5171 12.7909C71.3199 14.5311 71.1226 16.2711 70.7905 17.9853C70.0181 21.9813 67.4553 24.8228 64.1661 27.0264C63.4537 27.5039 62.6907 27.9074 61.9275 28.3109C61.5906 28.489 61.2534 28.6673 60.9208 28.8518C59.6306 29.5687 59.5384 30.1362 60.6597 31.0466C62.4239 32.4784 63.1041 34.229 62.5643 36.4832C62.1957 38.0205 62.6587 39.4874 63.4222 40.7937C64.2742 42.2527 65.176 43.6824 66.0776 45.112L66.0783 45.1132C66.6185 45.9696 67.1585 46.8259 67.6878 47.6884C70.4745 52.2277 69.2172 56.4788 66.2309 60.2352C66.1025 60.3967 65.9954 60.5741 65.8639 60.792C65.7931 60.9093 65.7152 61.0384 65.6231 61.183L65.6274 61.1808ZM42.7723 58.4736L42.7262 58.1855C42.8154 58.0836 42.9169 57.9861 43.0184 57.8885C43.2413 57.6744 43.4644 57.4601 43.5578 57.2002C43.6214 57.0234 43.694 56.8412 43.7677 56.6563C44.0523 55.9423 44.3524 55.1891 44.2095 54.5567C43.4766 51.2864 41.1924 49.3049 38.0086 48.8386C34.9388 48.39 32.3409 49.8305 30.2366 52.0803C30.0771 52.2507 29.9839 52.4974 29.8974 52.7264L29.8855 52.7577C29.1 54.8426 29.8899 56.58 31.4039 57.8666C32.7183 58.9816 34.2411 59.9822 35.8385 60.6112C41.8726 62.9886 48.045 62.8875 54.1955 61.0621C56.5104 60.3737 58.6937 59.3005 60.403 57.4993C61.9389 55.8806 62.0728 53.8771 60.8133 52.2145C57.6338 48.0183 51.2486 47.9435 47.8914 51.922C46.0417 54.1124 46.0461 55.6585 48.8503 58.1151C48.9543 58.2066 49.0758 58.2785 49.1971 58.3503C49.3293 58.4286 49.4613 58.5067 49.57 58.6099C49.6511 58.687 49.6943 58.8029 49.7697 59.0052C49.8147 59.1259 49.8712 59.2775 49.954 59.4698C47.4943 58.2536 45.2145 57.706 42.7745 58.478L42.7723 58.4736ZM50.5333 48.3086C48.5168 46.7427 42.95 47.0176 40.3652 48.247C40.8112 48.5101 41.2417 48.7659 41.6611 49.0151L41.6666 49.0184L41.6742 49.0229L41.6752 49.0235C42.8846 49.7423 44.0031 50.4071 45.1421 51.0357C45.4207 51.1896 45.9298 51.2138 46.1909 51.0577C47.2661 50.4199 48.3158 49.7408 49.3986 49.0403L49.3997 49.0396C49.7728 48.7982 50.1499 48.5543 50.5333 48.3086ZM35.7365 43.9294C36.4702 43.5072 36.7698 42.8575 36.9137 42.1639C37.1528 41.0181 37.0058 39.8921 36.0908 39.0255C35.3444 38.3189 34.5508 38.2453 34.0437 38.7547C33.8238 38.9745 33.6575 39.3037 33.5718 39.7381C33.4753 40.2219 33.7978 40.9763 34.1818 41.3304L34.2073 41.3539C35.0115 42.0967 35.7453 42.7745 35.2285 44.1586L35.2263 44.1608C35.4164 44.0943 35.5856 44.0166 35.7365 43.9294ZM55.4681 39.0673C54.1845 40.1999 54.3447 42.5817 55.6042 43.4944C55.8324 43.2713 56.0472 43.0545 56.2551 42.8445C56.699 42.3965 57.1118 41.9797 57.5571 41.6009C58.3184 40.9543 58.4413 40.035 57.7896 39.2081C57.487 38.8242 57.0462 38.6286 56.591 38.6292C56.2008 38.6296 55.8004 38.7739 55.4681 39.0673Z" fill="white"/>
<path d="M25.1657 31.0642C25.0482 31.0642 24.9228 31.0781 24.7975 31.092C24.5273 31.122 24.2575 31.1519 24.0686 31.0422C22.5546 30.1625 21.0427 29.2674 19.6055 28.2712C18.1268 27.2454 16.6816 26.1698 15.2371 25.0948C14.6904 24.6879 14.1438 24.2811 13.5955 23.8771C13.5609 23.8514 13.5249 23.8256 13.4884 23.7996C13.3097 23.6721 13.1205 23.5371 13.0404 23.3581C12.9203 23.0928 12.8511 22.8049 12.7818 22.5169C12.7523 22.3943 12.7227 22.2715 12.6893 22.1507C12.8285 22.1576 12.9771 22.1489 13.1257 22.1402C13.4454 22.1214 13.7643 22.1027 13.9861 22.2408C14.7651 22.7303 15.5028 23.2879 16.2408 23.8458C16.4943 24.0375 16.7479 24.2291 17.0032 24.4181C17.4237 24.7293 17.8443 25.0404 18.2649 25.3514L18.2741 25.3582L18.2756 25.3593C20.1996 26.7822 22.1231 28.2047 24.0379 29.6391C24.3309 29.859 24.5951 30.115 24.8594 30.371C24.9809 30.4888 25.1027 30.6068 25.2272 30.7212C25.2162 30.7783 25.2058 30.8355 25.1953 30.8927C25.1849 30.9499 25.1745 31.0071 25.1635 31.0642H25.1657Z" fill="white"/>
<path d="M7.56711 26.9779C7.45608 26.9314 7.33032 26.8788 7.18173 26.8153L7.17954 26.8131C7.1055 26.9023 7.01779 26.9901 6.92943 27.0786C6.71943 27.2889 6.50524 27.5033 6.46202 27.7478C6.42033 27.9831 6.80652 28.4317 7.10274 28.5681C9.81921 29.8283 12.5444 31.0708 15.2916 32.2584C17.6022 33.2569 19.9412 34.1894 22.2847 35.1087C22.5546 35.2142 22.9451 35.0779 23.2479 34.9657C23.3094 34.9437 23.3116 34.4577 23.1909 34.3103C23.0466 34.1342 22.8071 34.0284 22.5777 33.927C22.5618 33.92 22.5458 33.9129 22.53 33.9059C22.5035 33.8941 22.4773 33.8824 22.4514 33.8705C18.6255 32.0908 14.7969 30.3153 10.9676 28.5396C9.99385 28.088 9.02006 27.6364 8.04626 27.1848C7.90255 27.1183 7.75605 27.057 7.56711 26.9779Z" fill="white"/>
<path d="M19.4723 38.6084C19.966 38.6984 20.4752 38.7913 21.0054 38.8958C21.0382 38.8635 21.0926 38.8226 21.1543 38.7762C21.3238 38.6487 21.5487 38.4795 21.5343 38.3328C21.5079 38.0755 21.17 37.7104 20.8979 37.6334C19.3043 37.1838 17.7048 36.7551 16.1054 36.3265C14.9587 36.0192 13.8116 35.7117 12.6673 35.3968C11.3507 35.0348 10.036 34.664 8.72118 34.2931C7.19189 33.8617 5.66213 33.4302 4.12956 33.0128C3.61611 32.8742 2.98856 32.7269 2.7845 33.5032C2.58262 34.2708 3.15093 34.4379 3.69949 34.5853C4.64052 34.8377 5.58134 35.0908 6.52214 35.344C9.8436 36.2378 13.165 37.1316 16.4941 37.9919C17.4522 38.2398 18.4276 38.4178 19.4723 38.6084Z" fill="white"/>
<path d="M72.4786 42.6301L72.4623 42.6205L72.4604 42.6194L72.4561 42.6168C72.3214 42.5371 72.1491 42.4352 71.9776 42.3332C72.0586 42.2389 72.1352 42.1246 72.2118 42.0103C72.378 41.7625 72.5441 41.5148 72.7543 41.4711C73.9794 41.2115 75.2223 41.0336 76.4649 40.8557C76.6646 40.8271 76.8642 40.7985 77.0638 40.7696C81.0288 40.1955 84.9938 39.6281 88.9588 39.0673C89.0185 39.0588 89.0792 39.0494 89.1406 39.0399C89.521 38.981 89.9249 38.9185 90.2556 39.0321C90.5007 39.1181 90.6977 39.3467 90.8944 39.5749C90.9793 39.6735 91.0643 39.7721 91.153 39.8591C91.0691 39.946 90.988 40.0529 90.9069 40.1598C90.7315 40.391 90.5562 40.6222 90.3521 40.6508C87.3592 41.0731 84.3575 41.4381 81.3536 41.7922C79.4134 42.0204 77.4721 42.2314 75.4283 42.4537C74.5367 42.5507 73.6255 42.6497 72.6863 42.7533C72.6485 42.7307 72.5743 42.6868 72.4786 42.6301Z" fill="white"/>
<path d="M37.2557 89.5176C37.8484 89.6594 38.441 89.8012 39.0289 89.9559V89.9537C39.0605 89.8805 39.0922 89.8078 39.1238 89.7351L39.1249 89.7324C39.1566 89.6597 39.1882 89.5871 39.2198 89.5138C39.1411 89.4313 39.0655 89.3449 38.9901 89.2587C38.8322 89.0781 38.6747 88.8979 38.4891 88.7551C38.0995 88.4565 37.7113 88.1556 37.3232 87.8547L37.3224 87.8541C36.0955 86.9031 34.8681 85.9516 33.5916 85.0713C30.9036 83.2196 28.2969 81.293 26.3923 78.5769C23.9062 75.0317 23.0483 71.216 24.6632 67.0704C24.9413 66.3538 25.322 65.6783 25.7034 65.0016C25.9328 64.5944 26.1626 64.1866 26.3703 63.7694C26.3916 63.7271 26.4138 63.6845 26.4361 63.6416C26.6789 63.1751 26.9393 62.675 26.208 62.2783C25.7011 62.0034 25.1942 61.7087 24.7488 61.3458C24.0774 60.7982 23.5222 60.829 22.9539 61.4821C18.3394 66.7889 17.6921 73.3493 21.3258 79.1004C24.2156 83.6748 28.3803 86.6482 33.3963 88.445C34.6496 88.894 35.9527 89.2058 37.2557 89.5176Z" fill="white"/>
<path d="M40.6339 72.4242C40.7518 72.4678 40.8697 72.5114 40.9818 72.562L40.984 72.5686C40.9872 72.6287 40.9899 72.6889 40.9926 72.749L40.9928 72.7533C40.9955 72.8149 40.9982 72.8765 41.0015 72.9381C40.8047 73.0093 40.609 73.0846 40.4132 73.1599C39.9805 73.3263 39.5476 73.4928 39.1035 73.6154C38.0875 73.8944 38.1782 74.6302 38.2637 75.324C38.2746 75.4122 38.2854 75.5002 38.2938 75.586C38.3602 76.2582 38.835 76.1767 39.2623 76.1034C39.3438 76.0894 39.4236 76.0757 39.4985 76.0676C41.6401 75.8323 43.7399 75.4738 45.3 73.5451C45.6884 74.9988 46.5968 75.9972 47.9266 75.4408C49.5042 74.781 50.6277 74.8932 52.0693 75.8323C52.6994 76.2418 53.6387 76.1999 54.5523 76.1592C54.8604 76.1455 55.1656 76.1319 55.455 76.1358C55.5339 76.1366 55.6169 76.1404 55.7018 76.1443C56.271 76.1703 56.9273 76.2002 57.0304 75.3792C57.1424 74.5017 56.7935 73.831 55.8368 73.5604C55.5427 73.4762 55.2688 73.3182 54.9316 73.1238C54.758 73.0237 54.5676 72.9139 54.3491 72.7995C54.6312 72.6434 54.903 72.5169 55.1541 72.4C55.6705 72.1598 56.0992 71.9602 56.3502 71.6273C56.6672 71.2073 56.7407 70.5902 56.8105 70.0039C56.8248 69.8841 56.8389 69.7655 56.8549 69.6502C56.8725 69.5248 56.4468 69.1795 56.2669 69.2081C56.055 69.2411 55.8423 69.2719 55.6294 69.3027C53.9679 69.5434 52.298 69.7852 51.0007 71.0621C50.7755 71.2829 50.5649 71.5183 50.4311 71.6679L50.4302 71.6689L50.4289 71.6703C50.3838 71.7207 50.3476 71.7612 50.3227 71.7878C50.0048 71.6188 49.7073 71.4356 49.4207 71.259C48.8089 70.8823 48.2464 70.5359 47.6413 70.4221C46.52 70.2088 45.7082 71.0225 45.2452 71.9506C45.0701 71.7452 44.9115 71.5221 44.7565 71.3039L44.7558 71.303C44.4215 70.8326 44.1034 70.385 43.6719 70.1868C42.4585 69.6304 41.1222 69.3203 39.8101 69.0212C38.7349 68.7749 38.0591 69.516 38.4891 70.5409C38.7023 71.0492 39.1939 71.4572 39.6613 71.8451C39.7519 71.9203 39.842 71.9951 39.9286 72.0694C40.1224 72.235 40.3779 72.3295 40.6339 72.4242Z" fill="white"/>
<path d="M13.8682 42.2689C9.99487 41.8131 6.04299 41.348 2.09111 40.8795C2.02049 40.8709 1.94744 40.8641 1.87363 40.8572C1.56908 40.8288 1.25159 40.7991 1.03788 40.6398C0.774572 40.4463 0.54418 40.024 0.552952 39.7095C0.559535 39.4874 0.956691 39.2147 1.23755 39.0827C1.40212 39.0065 1.62805 39.0446 1.84169 39.0807C1.89296 39.0894 1.94353 39.0979 1.99237 39.1047C6.2642 39.7219 10.5348 40.3428 14.805 40.9637L14.8116 40.9646L14.8128 40.9648C16.1703 41.1622 17.5284 41.3596 18.8858 41.5569C18.933 41.5638 18.9818 41.5686 19.0308 41.5734C19.1689 41.587 19.3089 41.6008 19.419 41.6624C19.5773 41.7502 19.7183 41.8714 19.8587 41.9921C19.9188 42.0437 19.9788 42.0953 20.04 42.1441C19.9738 42.2091 19.9107 42.2812 19.8478 42.3532C19.7022 42.5197 19.5567 42.686 19.3729 42.7643C19.2109 42.8339 19.0146 42.8213 18.755 42.8046C18.6208 42.796 18.4697 42.7863 18.2978 42.7863L18.2999 42.7907C16.8534 42.6202 15.3912 42.4482 13.9175 42.2747L13.8682 42.2689Z" fill="white"/>
<path d="M2.07574 60.5351C2.15875 60.6315 2.23909 60.7247 2.29736 60.8114L2.29517 60.8136C2.49443 60.7618 2.65898 60.7214 2.80116 60.6864C3.04544 60.6264 3.22416 60.5824 3.39887 60.5255C4.37277 60.2072 5.34675 59.8893 6.32072 59.5714C10.0647 58.3495 13.8084 57.1276 17.5451 55.885C17.6713 55.8431 17.8193 55.8205 17.9695 55.7976C18.4412 55.7256 18.9346 55.6503 18.8397 54.9613C18.82 54.8162 17.6877 54.6491 17.1414 54.7832C14.8694 55.342 12.6141 55.9633 10.3578 56.5849C9.90556 56.7095 9.45326 56.8341 9.00076 56.9583C8.75301 57.0262 8.50518 57.094 8.25731 57.1618L8.25633 57.1621L8.25338 57.1629L8.24868 57.1642C6.31733 57.6926 4.38418 58.2215 2.4751 58.821C2.12621 58.931 1.74661 59.4698 1.69834 59.8503C1.67063 60.0648 1.88055 60.3085 2.07574 60.5351Z" fill="white"/>
<path d="M75.1395 47.0968C75.0451 47.0968 74.9484 47.1028 74.8516 47.1087C74.6108 47.1236 74.3696 47.1385 74.163 47.0616C73.9171 46.9692 73.7002 46.8001 73.483 46.6308C73.3902 46.5584 73.2973 46.486 73.202 46.4194C73.3021 46.3539 73.4014 46.2718 73.5005 46.1899C73.7142 46.0131 73.9273 45.8369 74.1477 45.8278C76.5175 45.7333 78.8894 45.6915 81.2614 45.6673C83.5204 45.6446 85.7794 45.6386 88.0393 45.6327C88.846 45.6305 89.6527 45.6284 90.4597 45.6255C90.5095 45.6255 90.5624 45.6216 90.6158 45.6176C90.7575 45.607 90.9022 45.5962 90.9994 45.6585C91.2503 45.8199 91.4805 46.0132 91.7107 46.2064C91.8065 46.2869 91.9026 46.3676 92 46.4458C91.9017 46.5371 91.8066 46.6337 91.7114 46.7302C91.4856 46.9592 91.2599 47.1882 90.9928 47.3475C90.8405 47.4385 90.6224 47.4181 90.4051 47.3978C90.3125 47.3892 90.2199 47.3805 90.1327 47.3805L75.1395 47.0968Z" fill="white"/>
<path d="M16.6938 50.4111C16.8305 50.4111 16.9453 50.4034 17.0432 50.3968C17.2171 50.3851 17.3378 50.3771 17.4332 50.4221C17.672 50.5371 17.8954 50.685 18.1182 50.8325C18.2107 50.8938 18.3031 50.955 18.3965 51.0137C18.3032 51.0892 18.212 51.1813 18.1208 51.2735C17.9225 51.4739 17.7237 51.6748 17.5012 51.7064C14.5345 52.139 11.5636 52.5468 8.59278 52.9545C7.22877 53.1417 5.86393 53.329 4.50038 53.5186C3.41863 53.6682 2.33467 53.8243 1.26169 54.0377C0.638524 54.163 0.252336 54.0443 0.168954 53.3669C0.0767997 52.6279 0.541977 52.4124 1.14978 52.3398C1.83877 52.2569 2.52803 52.1753 3.21738 52.0938L3.2187 52.0936C4.44769 51.9482 5.67693 51.8028 6.90527 51.6493C9.36288 51.3424 11.8193 51.0295 14.1977 50.7266C15.0406 50.6192 15.8739 50.513 16.6938 50.4089V50.4111Z" fill="white"/>
<path d="M76.7771 50.5237L75.4116 50.3319C75.4094 50.3407 75.4072 50.3495 75.4072 50.3583C75.3167 50.3515 75.225 50.3383 75.1333 50.3252C74.9294 50.2959 74.726 50.2668 74.5382 50.3077C74.3641 50.346 74.207 50.4599 74.0499 50.5738C73.9813 50.6236 73.9127 50.6733 73.8427 50.7168C73.8862 50.7833 73.9261 50.8542 73.966 50.9252C74.0567 51.0867 74.1474 51.2483 74.2815 51.3568C74.4702 51.5107 74.7401 51.5943 74.9859 51.6339L75.6385 51.7375C80.6409 52.5322 85.6417 53.3266 90.6506 54.0685C90.8628 54.0999 91.1087 53.9038 91.3548 53.7074C91.47 53.6155 91.5853 53.5236 91.6972 53.4549C91.6136 53.3566 91.5346 53.2392 91.4557 53.1218C91.2819 52.8634 91.1079 52.6047 90.8831 52.5488C90.1733 52.3713 89.4431 52.2817 88.712 52.1921C88.4283 52.1573 88.1445 52.1225 87.8617 52.0825C84.1675 51.5617 80.4716 51.0426 76.7771 50.5237Z" fill="white"/>
<path d="M69.1251 35.0405C69.0835 35.0136 69.0381 34.9842 68.9898 34.9529C68.8286 34.8487 68.6346 34.7231 68.4405 34.5962C68.5013 34.5248 68.5574 34.4433 68.6136 34.3617C68.7336 34.1874 68.8538 34.0129 69.0198 33.9365C72.6969 32.2363 76.3815 30.551 80.0661 28.8657L80.0674 28.8651C81.2962 28.3031 82.5256 27.7407 83.7541 27.1782C84.3224 26.9186 84.9258 26.7229 85.2659 27.4311C85.6056 28.1407 85.0061 28.396 84.4952 28.6136L84.4935 28.6143C79.6311 30.6992 74.7665 32.7797 69.8996 34.8558C69.7708 34.9103 69.6307 34.9377 69.4514 34.9727C69.3559 34.9914 69.2493 35.0122 69.1273 35.0405H69.1251Z" fill="white"/>
<path d="M20.1797 59.251C20.3606 59.1077 20.5415 58.9644 20.7268 58.8298H20.7246L20.5008 58.3834C20.3854 58.4043 20.268 58.4195 20.1507 58.4346C19.8976 58.4673 19.6448 58.5 19.4124 58.5901L19.3105 58.6294C18.089 59.1002 16.8625 59.573 15.6712 60.1186C13.6376 61.0523 11.6104 62.0027 9.58331 62.9531L9.58233 62.9536L9.58132 62.9541C8.24295 63.5816 6.90464 64.209 5.56459 64.8316C5.00506 65.0911 4.59035 65.4254 4.88438 66.0874C5.18634 66.7688 5.69606 66.5516 6.15444 66.3562C6.19882 66.3373 6.24331 66.3184 6.28649 66.3007C6.89368 66.0509 7.48482 65.7601 8.07437 65.47C8.13889 65.4382 8.20339 65.4065 8.26789 65.3748C9.05298 64.9889 9.83818 64.6037 10.6232 64.2186L10.6263 64.2171L10.632 64.2143C13.4093 62.8518 16.1858 61.4898 18.9494 60.0988C19.389 59.877 19.7842 59.5641 20.1797 59.251Z" fill="white"/>
<path d="M90.0954 59.4258C90.1108 60.3583 89.5249 60.7432 88.7328 60.4925C85.2966 59.4038 81.8648 58.302 78.4352 57.1936C78.2149 57.1227 77.9944 57.0523 77.7739 56.9819C76.6063 56.6093 75.4386 56.2367 74.3035 55.7817C74.0526 55.6808 73.8747 55.3974 73.6966 55.1136C73.6146 54.983 73.5326 54.8522 73.4433 54.7392C73.5843 54.7105 73.7305 54.664 73.8765 54.6176C74.1894 54.518 74.5017 54.4186 74.7621 54.4951C79.5762 55.9356 84.3728 57.4245 89.1694 58.92C89.4268 59.0003 89.6614 59.1511 89.8611 59.2795C89.9457 59.3339 90.0243 59.3844 90.0954 59.4236V59.4258Z" fill="white"/>
<path d="M11.4965 45.9265C10.8446 45.9278 10.1926 45.929 9.54055 45.929L9.53835 45.9246V45.8102C9.18589 45.8102 8.83319 45.8098 8.4804 45.8093C7.77459 45.8083 7.06846 45.8073 6.36329 45.8102C5.94494 45.8118 5.52659 45.812 5.10827 45.8122C3.7011 45.8131 2.29423 45.8139 0.888664 45.863C0.682298 45.8705 0.482045 46.0445 0.281659 46.2186C0.188018 46.3 0.0943439 46.3814 0 46.4458C0.0791969 46.536 0.153459 46.6372 0.2277 46.7384C0.396132 46.9681 0.56457 47.1977 0.789927 47.2969C1.13197 47.4464 1.56052 47.4315 1.96124 47.4176C2.00268 47.4162 2.04381 47.4147 2.08453 47.4135C3.33826 47.3756 4.592 47.3308 5.84574 47.2861C7.78901 47.2168 9.73228 47.1475 11.6755 47.1034C12.6704 47.0805 13.6658 47.0873 14.661 47.0942C15.6741 47.1011 16.687 47.108 17.6987 47.0836C17.952 47.0776 18.2012 46.9167 18.4504 46.7557C18.5661 46.681 18.6819 46.6063 18.798 46.547C18.6892 46.4821 18.5804 46.4004 18.4715 46.3185C18.2333 46.1395 17.9945 45.9599 17.7536 45.9554C15.6673 45.9185 13.5822 45.9225 11.4965 45.9265Z" fill="white"/>
<path d="M70.8497 38.8342C70.6742 38.6759 70.4416 38.4669 70.209 38.258C70.2854 38.1906 70.3584 38.1111 70.4314 38.0316C70.587 37.8621 70.7428 37.6924 70.9309 37.64C72.9443 37.082 74.9626 36.539 76.9811 35.9959C78.5109 35.5844 80.0408 35.1727 81.5686 34.7546C82.6286 34.4645 83.6837 34.1578 84.7388 33.8511C85.6755 33.5787 86.6122 33.3064 87.5523 33.0458C88.2171 32.861 88.8403 32.9556 88.9895 33.7693C89.1071 34.4076 88.6832 34.4807 88.2627 34.5533C88.1732 34.5688 88.0839 34.5842 87.9999 34.605C83.9465 35.6052 79.8944 36.6091 75.8426 37.613L75.8377 37.6142C74.5897 37.9234 73.3418 38.2326 72.0939 38.5417C71.8749 38.5966 71.6543 38.648 71.3888 38.7099C71.2286 38.7473 71.0521 38.7884 70.8497 38.8364V38.8342Z" fill="white"/>
<path d="M72.6743 58.3913C72.5009 58.3666 72.3276 58.3419 72.1597 58.3064C72.113 58.4134 72.065 58.5192 72.0167 58.6256L71.971 58.7265C72.0483 58.8005 72.1221 58.881 72.1959 58.9616C72.3567 59.137 72.518 59.313 72.7149 59.4214C76.9322 61.7351 81.1583 64.0333 85.3932 66.3161C85.8627 66.569 86.521 66.8681 86.7755 66.1446C86.8677 65.8828 86.4179 65.2297 86.0646 65.0427C81.9767 62.8787 77.8669 60.7564 73.7439 58.6605C73.4243 58.4981 73.0493 58.4447 72.6743 58.3913Z" fill="white"/>
<path d="M66.5956 31.3775C66.6602 31.4201 66.725 31.4629 66.775 31.5019H66.7772C66.8497 31.4611 66.9161 31.4249 66.9782 31.391C67.1004 31.3244 67.2056 31.267 67.3061 31.2028C68.0725 30.7159 68.8395 30.2299 69.6065 29.744L69.6074 29.7434C71.7606 28.3791 73.9143 27.0145 76.0545 25.6299C77.0309 24.9987 77.9723 24.3015 78.8675 23.5582C79.019 23.4334 79.0577 23.172 79.0965 22.9101C79.1144 22.7889 79.1324 22.6676 79.1615 22.5597C79.0534 22.5398 78.9447 22.5128 78.8361 22.4858C78.5853 22.4236 78.3348 22.3614 78.0929 22.386C77.8994 22.4057 77.7156 22.5496 77.5353 22.6908C77.4744 22.7385 77.4138 22.7858 77.3535 22.828C75.0539 24.4335 72.7543 26.0389 70.4614 27.6532C69.2106 28.5329 67.9599 29.417 66.7399 30.3385C66.5205 30.5034 66.4086 30.8553 66.3318 31.1434C66.3183 31.1945 66.4564 31.2856 66.5956 31.3775Z" fill="white"/>
<path d="M80.2169 71.4228C78.9333 71.3348 77.902 70.6772 76.998 69.7821C76.8905 69.6744 76.8729 69.2785 76.9629 69.2103C77.1384 69.074 77.5027 68.9486 77.6409 69.041C78.3685 69.5255 79.0747 70.044 79.7804 70.5622C80.0069 70.7285 80.2334 70.8948 80.4605 71.0599C80.3793 71.1809 80.2981 71.3018 80.2169 71.425V71.4228Z" fill="white"/>
<path d="M558.661 39.92V62H549.541V39.92H558.661ZM564.853 49.424C564.565 49.04 564.197 48.72 563.749 48.464C563.301 48.208 562.757 48.08 562.117 48.08C561.573 48.08 561.029 48.24 560.485 48.56C559.941 48.88 559.493 49.376 559.141 50.048C558.821 50.72 558.661 51.584 558.661 52.64L556.933 48.56C556.933 46.8 557.301 45.232 558.037 43.856C558.773 42.48 559.733 41.392 560.917 40.592C562.133 39.76 563.413 39.344 564.757 39.344C565.557 39.344 566.325 39.552 567.061 39.968C567.829 40.352 568.357 40.816 568.645 41.36L564.853 49.424Z" fill="white"/>
<path d="M519.002 50.96C519.002 48.56 519.578 46.496 520.73 44.768C521.882 43.04 523.466 41.712 525.482 40.784C527.498 39.856 529.786 39.392 532.346 39.392C534.906 39.392 537.194 39.856 539.21 40.784C541.226 41.712 542.81 43.04 543.962 44.768C545.114 46.496 545.69 48.56 545.69 50.96C545.69 53.328 545.114 55.376 543.962 57.104C542.81 58.832 541.226 60.16 539.21 61.088C537.194 62.016 534.906 62.48 532.346 62.48C529.786 62.48 527.498 62.016 525.482 61.088C523.466 60.16 521.882 58.832 520.73 57.104C519.578 55.376 519.002 53.328 519.002 50.96ZM528.65 50.96C528.65 51.856 528.826 52.608 529.178 53.216C529.53 53.824 529.978 54.288 530.522 54.608C531.098 54.896 531.706 55.04 532.346 55.04C532.986 55.04 533.578 54.896 534.122 54.608C534.698 54.288 535.162 53.824 535.514 53.216C535.866 52.608 536.042 51.856 536.042 50.96C536.042 50.064 535.866 49.312 535.514 48.704C535.162 48.096 534.698 47.632 534.122 47.312C533.578 46.992 532.986 46.832 532.346 46.832C531.706 46.832 531.098 46.992 530.522 47.312C529.978 47.632 529.53 48.096 529.178 48.704C528.826 49.312 528.65 50.064 528.65 50.96Z" fill="white"/>
<path d="M498.385 24.56V62H489.025V24.56H498.385ZM516.145 50.96C516.145 53.488 515.633 55.616 514.609 57.344C513.617 59.04 512.337 60.32 510.769 61.184C509.233 62.048 507.617 62.48 505.921 62.48C504.097 62.48 502.449 62.016 500.977 61.088C499.505 60.16 498.337 58.832 497.473 57.104C496.609 55.376 496.177 53.328 496.177 50.96C496.177 48.56 496.609 46.512 497.473 44.816C498.337 43.088 499.505 41.76 500.977 40.832C502.449 39.904 504.097 39.44 505.921 39.44C507.617 39.44 509.233 39.872 510.769 40.736C512.337 41.6 513.617 42.88 514.609 44.576C515.633 46.272 516.145 48.4 516.145 50.96ZM506.257 50.96C506.257 50.128 506.081 49.392 505.729 48.752C505.377 48.112 504.897 47.6 504.289 47.216C503.713 46.832 503.057 46.64 502.321 46.64C501.681 46.64 501.057 46.816 500.449 47.168C499.841 47.52 499.345 48.016 498.961 48.656C498.577 49.296 498.385 50.064 498.385 50.96C498.385 51.856 498.577 52.624 498.961 53.264C499.345 53.904 499.841 54.4 500.449 54.752C501.057 55.104 501.681 55.28 502.321 55.28C503.057 55.28 503.713 55.088 504.289 54.704C504.897 54.32 505.377 53.808 505.729 53.168C506.081 52.496 506.257 51.76 506.257 50.96Z" fill="white"/>
<path d="M469.43 55.04C469.43 55.456 469.526 55.808 469.718 56.096C469.942 56.352 470.214 56.56 470.534 56.72C470.886 56.848 471.254 56.912 471.638 56.912C472.246 56.912 472.822 56.784 473.366 56.528C473.942 56.24 474.406 55.808 474.758 55.232C475.142 54.624 475.334 53.84 475.334 52.88L476.102 55.76C476.102 57.168 475.75 58.384 475.046 59.408C474.342 60.4 473.382 61.168 472.166 61.712C470.95 62.224 469.574 62.48 468.038 62.48C466.598 62.48 465.27 62.224 464.054 61.712C462.838 61.2 461.862 60.432 461.126 59.408C460.39 58.352 460.022 57.072 460.022 55.568C460.022 53.456 460.758 51.808 462.23 50.624C463.734 49.408 465.894 48.8 468.71 48.8C469.862 48.8 470.966 48.896 472.022 49.088C473.11 49.28 474.07 49.552 474.902 49.904C475.766 50.224 476.438 50.64 476.918 51.152V54.944C476.374 54.464 475.638 54.08 474.71 53.792C473.814 53.504 472.886 53.36 471.926 53.36C471.318 53.36 470.822 53.424 470.438 53.552C470.086 53.68 469.83 53.872 469.67 54.128C469.51 54.352 469.43 54.656 469.43 55.04ZM464.582 47.696L461.75 41.648C463.286 41.04 465.014 40.48 466.934 39.968C468.886 39.456 470.918 39.2 473.03 39.2C475.11 39.2 476.998 39.488 478.694 40.064C480.39 40.64 481.734 41.488 482.726 42.608C483.718 43.696 484.214 45.04 484.214 46.64V62H475.334V48.944C475.334 48.528 475.27 48.144 475.142 47.792C475.014 47.44 474.806 47.136 474.518 46.88C474.23 46.592 473.846 46.384 473.366 46.256C472.886 46.096 472.31 46.016 471.638 46.016C470.742 46.016 469.798 46.128 468.806 46.352C467.814 46.544 466.934 46.784 466.166 47.072C465.398 47.328 464.87 47.536 464.582 47.696Z" fill="white"/>
<path d="M434.813 28.4H445.373V53.12H459.053V62H434.813V28.4Z" fill="white"/>
<path d="M399.771 39.92H416.811V47.36H399.771V39.92ZM403.851 32.24H412.731V62H403.851V32.24Z" fill="white"/>
<path d="M387.477 32.144C387.477 30.736 387.973 29.6 388.965 28.736C389.989 27.872 391.221 27.44 392.661 27.44C394.101 27.44 395.317 27.872 396.309 28.736C397.333 29.6 397.845 30.736 397.845 32.144C397.845 33.552 397.333 34.688 396.309 35.552C395.317 36.416 394.101 36.848 392.661 36.848C391.221 36.848 389.989 36.416 388.965 35.552C387.973 34.688 387.477 33.552 387.477 32.144ZM388.149 39.92H397.125V62H388.149V39.92Z" fill="white"/>
<path d="M366.619 24.56V62H357.259V24.56H366.619ZM384.379 50.96C384.379 53.488 383.867 55.616 382.843 57.344C381.851 59.04 380.571 60.32 379.003 61.184C377.467 62.048 375.851 62.48 374.155 62.48C372.331 62.48 370.683 62.016 369.211 61.088C367.739 60.16 366.571 58.832 365.707 57.104C364.843 55.376 364.411 53.328 364.411 50.96C364.411 48.56 364.843 46.512 365.707 44.816C366.571 43.088 367.739 41.76 369.211 40.832C370.683 39.904 372.331 39.44 374.155 39.44C375.851 39.44 377.467 39.872 379.003 40.736C380.571 41.6 381.851 42.88 382.843 44.576C383.867 46.272 384.379 48.4 384.379 50.96ZM374.491 50.96C374.491 50.128 374.315 49.392 373.963 48.752C373.611 48.112 373.131 47.6 372.523 47.216C371.947 46.832 371.291 46.64 370.555 46.64C369.915 46.64 369.291 46.816 368.683 47.168C368.075 47.52 367.579 48.016 367.195 48.656C366.811 49.296 366.619 50.064 366.619 50.96C366.619 51.856 366.811 52.624 367.195 53.264C367.579 53.904 368.075 54.4 368.683 54.752C369.291 55.104 369.915 55.28 370.555 55.28C371.291 55.28 371.947 55.088 372.523 54.704C373.131 54.32 373.611 53.808 373.963 53.168C374.315 52.496 374.491 51.76 374.491 50.96Z" fill="white"/>
<path d="M335.682 24.56V62H326.322V24.56H335.682ZM353.442 50.96C353.442 53.488 352.93 55.616 351.906 57.344C350.914 59.04 349.634 60.32 348.066 61.184C346.53 62.048 344.914 62.48 343.218 62.48C341.394 62.48 339.746 62.016 338.274 61.088C336.802 60.16 335.634 58.832 334.77 57.104C333.906 55.376 333.474 53.328 333.474 50.96C333.474 48.56 333.906 46.512 334.77 44.816C335.634 43.088 336.802 41.76 338.274 40.832C339.746 39.904 341.394 39.44 343.218 39.44C344.914 39.44 346.53 39.872 348.066 40.736C349.634 41.6 350.914 42.88 351.906 44.576C352.93 46.272 353.442 48.4 353.442 50.96ZM343.554 50.96C343.554 50.128 343.378 49.392 343.026 48.752C342.674 48.112 342.194 47.6 341.586 47.216C341.01 46.832 340.354 46.64 339.618 46.64C338.978 46.64 338.354 46.816 337.746 47.168C337.138 47.52 336.642 48.016 336.258 48.656C335.874 49.296 335.682 50.064 335.682 50.96C335.682 51.856 335.874 52.624 336.258 53.264C336.642 53.904 337.138 54.4 337.746 54.752C338.354 55.104 338.978 55.28 339.618 55.28C340.354 55.28 341.01 55.088 341.586 54.704C342.194 54.32 342.674 53.808 343.026 53.168C343.378 52.496 343.554 51.76 343.554 50.96Z" fill="white"/>
<path d="M306.727 55.04C306.727 55.456 306.823 55.808 307.015 56.096C307.239 56.352 307.511 56.56 307.831 56.72C308.183 56.848 308.551 56.912 308.935 56.912C309.543 56.912 310.119 56.784 310.663 56.528C311.239 56.24 311.703 55.808 312.055 55.232C312.439 54.624 312.631 53.84 312.631 52.88L313.399 55.76C313.399 57.168 313.047 58.384 312.343 59.408C311.639 60.4 310.679 61.168 309.463 61.712C308.247 62.224 306.871 62.48 305.335 62.48C303.895 62.48 302.567 62.224 301.351 61.712C300.135 61.2 299.159 60.432 298.423 59.408C297.687 58.352 297.319 57.072 297.319 55.568C297.319 53.456 298.055 51.808 299.527 50.624C301.031 49.408 303.191 48.8 306.007 48.8C307.159 48.8 308.263 48.896 309.319 49.088C310.407 49.28 311.367 49.552 312.199 49.904C313.063 50.224 313.735 50.64 314.215 51.152V54.944C313.671 54.464 312.935 54.08 312.007 53.792C311.111 53.504 310.183 53.36 309.223 53.36C308.615 53.36 308.119 53.424 307.735 53.552C307.383 53.68 307.127 53.872 306.967 54.128C306.807 54.352 306.727 54.656 306.727 55.04ZM301.879 47.696L299.047 41.648C300.583 41.04 302.311 40.48 304.231 39.968C306.183 39.456 308.215 39.2 310.327 39.2C312.407 39.2 314.295 39.488 315.991 40.064C317.687 40.64 319.031 41.488 320.023 42.608C321.015 43.696 321.511 45.04 321.511 46.64V62H312.631V48.944C312.631 48.528 312.567 48.144 312.439 47.792C312.311 47.44 312.103 47.136 311.815 46.88C311.527 46.592 311.143 46.384 310.663 46.256C310.183 46.096 309.607 46.016 308.935 46.016C308.039 46.016 307.095 46.128 306.103 46.352C305.111 46.544 304.231 46.784 303.463 47.072C302.695 47.328 302.167 47.536 301.879 47.696Z" fill="white"/>
<path d="M275.95 47.6H286.75L296.35 62H284.11L275.95 47.6ZM266.11 28.4H276.67V62H266.11V28.4ZM272.926 37.28V28.4H280.27C283.566 28.4 286.238 28.896 288.286 29.888C290.366 30.88 291.886 32.24 292.846 33.968C293.838 35.696 294.334 37.68 294.334 39.92C294.334 42.128 293.838 44.112 292.846 45.872C291.886 47.6 290.366 48.96 288.286 49.952C286.238 50.944 283.566 51.44 280.27 51.44H272.926V43.52H279.31C280.206 43.52 280.942 43.408 281.518 43.184C282.094 42.928 282.526 42.56 282.814 42.08C283.134 41.6 283.294 41.04 283.294 40.4C283.294 39.728 283.134 39.168 282.814 38.72C282.526 38.24 282.094 37.888 281.518 37.664C280.942 37.408 280.206 37.28 279.31 37.28H272.926Z" fill="white"/>
<path d="M249.064 39.92L234.664 72.56H225.544L230.488 61.04L220.264 39.92H230.344L237.544 57.92H232.504L239.704 39.92H249.064Z" fill="white"/>
<path d="M190.994 24.56H199.874V62H190.994V24.56ZM207.842 39.92H218.834L209.474 49.04L219.794 62H208.994L198.482 49.04L207.842 39.92Z" fill="white"/>
<path d="M176.331 48.56C176.331 47.568 176.187 46.8 175.899 46.256C175.611 45.68 174.987 45.392 174.027 45.392C173.483 45.392 173.003 45.504 172.587 45.728C172.171 45.952 171.851 46.304 171.627 46.784C171.403 47.232 171.291 47.824 171.291 48.56V62H161.931V39.92H171.291V43.136C171.899 42.016 172.747 41.12 173.835 40.448C174.955 39.744 176.379 39.392 178.107 39.392C181.115 39.392 183.211 40.112 184.395 41.552C185.579 42.96 186.171 44.976 186.171 47.6V62H176.331V48.56Z" fill="white"/>
<path d="M142.709 53.36C142.709 54.352 142.853 55.136 143.141 55.712C143.429 56.256 144.053 56.528 145.013 56.528C145.589 56.528 146.069 56.416 146.453 56.192C146.869 55.968 147.189 55.632 147.413 55.184C147.637 54.704 147.749 54.096 147.749 53.36V39.92H157.109V62H147.749V58.784C147.141 59.904 146.277 60.816 145.157 61.52C144.069 62.192 142.661 62.528 140.933 62.528C137.925 62.528 135.829 61.824 134.645 60.416C133.461 58.976 132.869 56.944 132.869 54.32V39.92H142.709V53.36Z" fill="white"/>
<path d="M108.4 63.872C108.976 64.224 109.632 64.56 110.368 64.88C111.072 65.2 111.728 65.36 112.336 65.36C113.072 65.36 113.76 65.088 114.4 64.544C115.04 64.032 115.36 63.104 115.36 61.76V28.4H127.12V64.4C127.12 66.192 126.752 67.696 126.016 68.912C125.28 70.16 124.288 71.152 123.04 71.888C121.792 72.624 120.368 73.152 118.768 73.472C117.168 73.824 115.504 74 113.776 74C112.304 74 110.88 73.856 109.504 73.568C108.128 73.28 106.864 72.912 105.712 72.464C104.528 72.048 103.488 71.6 102.592 71.12L108.4 63.872Z" fill="white"/>
</svg>
