<svg width="420" height="410" viewBox="0 0 420 410" fill="none" xmlns="http://www.w3.org/2000/svg">
<path fill-rule="evenodd" clip-rule="evenodd" d="M299.09 278.189C308.446 276.399 308.514 276.492 313.781 283.72C313.93 283.924 314.083 284.133 314.24 284.349C320.57 293.019 325.86 302.079 328.53 312.599C333.47 332.039 329.98 349.919 318.54 366.169C303.87 387.019 282.9 398.609 258.96 405.519C254.264 406.878 249.459 407.876 244.657 408.874L243.91 409.029C240.31 409.779 238.34 408.459 239.27 404.499C242.98 388.699 239.33 373.829 233.65 359.199C231.61 353.949 232.75 352.469 238.48 353.599C246.34 355.149 253.97 355.519 261.31 351.529C265.2 349.419 267.2 346.339 267.19 341.889C267.179 338.364 267.186 334.839 267.192 331.314V331.311C267.204 325.347 267.215 319.383 267.14 313.419C267.07 308.029 264.69 305.409 259.31 305.089C256.02 304.889 252.44 304.709 249.41 305.749C230.12 312.349 210.76 310.979 191.28 306.989C168.86 302.389 146.99 296.189 126.91 284.839C119.2 280.479 114.35 273.119 110 265.949C98.68 247.289 101.46 228.729 112.45 210.839C114.536 207.447 116.707 204.107 118.879 200.766C121.33 196.995 123.782 193.223 126.11 189.379C130.33 182.409 132.38 174.729 132.38 166.559C132.38 166.171 132.395 165.766 132.409 165.356C132.464 163.844 132.521 162.258 131.86 161.149C127.094 153.244 131.821 148.343 136.596 143.391L136.602 143.386C136.845 143.134 137.088 142.882 137.33 142.629C138.752 141.148 140.166 139.663 141.71 138.042L141.711 138.041L141.741 138.009C142.773 136.926 143.862 135.783 145.05 134.539C142.88 133.22 140.765 131.968 138.698 130.744C134.356 128.173 130.227 125.728 126.25 123.059C104.84 108.739 92.82 88.8689 91.27 62.9389C91.1865 61.5371 91.1064 60.1349 91.0264 58.7327C90.2435 45.0206 89.4608 31.3096 85.46 18.0189C85.0955 16.8133 84.6604 15.6254 84.2255 14.4378C83.5745 12.6604 82.9236 10.8831 82.51 9.04892C82.4479 8.77342 82.3805 8.48444 82.3109 8.18629C81.7187 5.64906 80.9714 2.44797 82.09 1.24892C83.48 -0.251084 87.38 -0.181077 89.96 0.328918C104.11 3.11891 117.56 7.94891 129.68 15.8789C155.93 33.0589 174.33 56.4589 183.73 86.4589C185.64 92.5424 186.264 99.0614 186.882 105.515L186.882 105.517L186.883 105.518C186.996 106.702 187.109 107.883 187.23 109.059C188.08 117.409 189.65 119.029 198.14 118.899C201.155 118.853 204.173 118.868 207.192 118.884C211.333 118.906 215.475 118.928 219.61 118.789C228.61 118.489 231.82 115.259 232.59 106.409C236.48 61.7989 260.04 30.7289 299.29 11.0689C306.492 7.46004 314.364 5.14275 322.203 2.83502C324.595 2.13098 326.984 1.4276 329.35 0.688918C330.789 0.236694 332.467 0.549712 334.144 0.862395C334.914 1.00606 335.684 1.14966 336.43 1.21892C336.344 1.91959 336.278 2.62527 336.211 3.33121C336.068 4.8519 335.925 6.37373 335.59 7.84892C334.787 11.3647 333.907 14.8677 333.027 18.3706C331.323 25.1599 329.618 31.9487 328.47 38.8289C327.4 45.2344 326.666 51.6984 325.932 58.1602L325.931 58.1613L325.931 58.1629C325.032 66.0756 324.134 73.9848 322.62 81.7789C319.1 99.9489 307.42 112.869 292.43 122.889C289.183 125.06 285.706 126.895 282.228 128.729L282.226 128.73C280.691 129.54 279.156 130.35 277.64 131.189C271.76 134.449 271.34 137.029 276.45 141.169C284.49 147.679 287.59 155.639 285.13 165.889C283.45 172.879 285.56 179.549 289.04 185.489C292.923 192.123 297.032 198.624 301.141 205.124L301.145 205.129C303.606 209.023 306.068 212.917 308.48 216.839C321.18 237.479 315.45 256.809 301.84 273.889C301.255 274.624 300.767 275.43 300.167 276.421C299.845 276.954 299.49 277.541 299.07 278.199L299.09 278.189ZM194.93 265.879L194.72 264.569C195.127 264.106 195.589 263.662 196.052 263.219C197.068 262.245 198.084 261.271 198.51 260.089C198.8 259.285 199.131 258.456 199.467 257.616C200.763 254.369 202.131 250.945 201.48 248.069C198.14 233.199 187.73 224.189 173.22 222.069C159.23 220.029 147.39 226.579 137.8 236.809C137.073 237.583 136.648 238.705 136.254 239.746L136.2 239.889C132.62 249.369 136.22 257.269 143.12 263.119C149.11 268.189 156.05 272.739 163.33 275.599C190.83 286.409 218.96 285.949 246.99 277.649C257.54 274.519 267.49 269.639 275.28 261.449C282.28 254.089 282.89 244.979 277.15 237.419C262.66 218.339 233.56 217.999 218.26 236.089C209.83 246.049 209.85 253.079 222.63 264.249C223.104 264.665 223.658 264.992 224.21 265.319C224.813 265.674 225.415 266.03 225.91 266.499C226.279 266.85 226.476 267.377 226.82 268.296C227.025 268.845 227.283 269.534 227.66 270.409C216.45 264.879 206.06 262.389 194.94 265.899L194.93 265.879ZM230.3 219.659C221.11 212.539 195.74 213.789 183.96 219.379C185.993 220.575 187.954 221.738 189.866 222.872L189.891 222.886L189.925 222.907L189.928 222.909L189.93 222.91C195.442 226.178 200.539 229.201 205.73 232.059C207 232.759 209.32 232.869 210.51 232.159C215.41 229.259 220.194 226.171 225.129 222.986L225.134 222.983C226.834 221.885 228.553 220.776 230.3 219.659ZM162.865 199.747C166.209 197.827 167.574 194.873 168.23 191.719C169.32 186.509 168.65 181.389 164.48 177.449C161.078 174.236 157.462 173.901 155.151 176.217C154.148 177.217 153.39 178.714 153 180.689C152.56 182.889 154.03 186.319 155.78 187.929L155.896 188.036C159.561 191.414 162.905 194.495 160.55 200.789L160.54 200.799C161.406 200.496 162.178 200.143 162.865 199.747ZM252.79 177.639C246.94 182.789 247.67 193.619 253.41 197.769C254.45 196.754 255.429 195.768 256.377 194.814C258.4 192.776 260.281 190.882 262.31 189.159C265.78 186.219 266.34 182.039 263.37 178.279C261.991 176.533 259.982 175.644 257.907 175.647C256.129 175.648 254.304 176.305 252.79 177.639Z" fill="#373E5E"/>
<path d="M114.69 141.249C114.155 141.249 113.583 141.312 113.012 141.375C111.78 141.512 110.551 141.648 109.69 141.149C102.79 137.149 95.9 133.079 89.35 128.549C82.6109 123.884 76.0244 118.994 69.4416 114.106C66.9499 112.256 64.4587 110.406 61.96 108.569C61.8024 108.452 61.6382 108.335 61.472 108.217C60.6575 107.637 59.7955 107.023 59.43 106.209C58.8831 105.003 58.5673 103.694 58.2516 102.384C58.1171 101.827 57.9823 101.268 57.83 100.719C58.4644 100.751 59.1419 100.711 59.8188 100.671C61.2759 100.586 62.7294 100.501 63.74 101.129C67.2903 103.354 70.6523 105.89 74.0155 108.427C75.171 109.298 76.3266 110.17 77.49 111.029C79.4066 112.444 81.3236 113.858 83.2405 115.273L83.2823 115.304L83.289 115.309C92.0573 121.778 100.824 128.247 109.55 134.769C110.885 135.769 112.089 136.933 113.294 138.097L113.295 138.098C113.849 138.634 114.403 139.169 114.97 139.689C114.92 139.949 114.872 140.209 114.825 140.469C114.777 140.729 114.73 140.989 114.68 141.249H114.69Z" fill="#373E5E"/>
<path d="M34.4863 122.668C33.9803 122.457 33.4071 122.218 32.7299 121.929L32.72 121.919C32.3825 122.324 31.9828 122.724 31.5801 123.126L31.5782 123.128C30.6211 124.084 29.6469 125.057 29.45 126.169C29.2599 127.239 31.02 129.279 32.37 129.899C44.75 135.629 57.17 141.279 69.69 146.679C80.22 151.219 90.88 155.459 101.56 159.639C102.79 160.119 104.57 159.499 105.95 158.989C106.23 158.889 106.24 156.679 105.69 156.009C105.032 155.208 103.941 154.727 102.896 154.266C102.823 154.234 102.75 154.202 102.678 154.17C102.557 154.116 102.438 154.063 102.32 154.009C84.8839 145.917 67.4351 137.844 49.9837 129.769C45.5459 127.716 41.1079 125.663 36.67 123.609C36.015 123.307 35.3474 123.028 34.4863 122.668Z" fill="#373E5E"/>
<path d="M88.7431 175.552C90.993 175.962 93.3136 176.384 95.73 176.859C95.8795 176.712 96.1272 176.526 96.4084 176.315C97.1809 175.735 98.206 174.966 98.14 174.299C98.02 173.129 96.48 171.469 95.24 171.119C87.9774 169.075 80.6877 167.125 73.3985 165.176L73.3961 165.176C68.1704 163.778 62.945 162.381 57.73 160.949C51.7297 159.303 45.7379 157.617 39.7458 155.931L39.7442 155.93C32.7746 153.969 25.8045 152.007 18.82 150.109C16.48 149.479 13.62 148.809 12.69 152.339C11.77 155.829 14.36 156.589 16.86 157.259C21.1487 158.407 25.4364 159.558 29.7239 160.709L29.7249 160.709C44.8621 164.773 59.9979 168.837 75.17 172.749C79.5365 173.876 83.9818 174.685 88.7431 175.552Z" fill="#373E5E"/>
<path d="M330.313 193.839L330.239 193.795L330.23 193.79L330.211 193.779C329.597 193.416 328.812 192.952 328.03 192.489C328.399 192.06 328.748 191.54 329.097 191.021C329.855 189.894 330.612 188.767 331.57 188.569C337.153 187.389 342.818 186.579 348.481 185.77C349.391 185.64 350.3 185.51 351.21 185.379C369.28 182.769 387.35 180.189 405.42 177.639C405.692 177.6 405.969 177.557 406.248 177.514C407.982 177.246 409.823 176.962 411.33 177.479C412.447 177.87 413.345 178.909 414.241 179.947C414.628 180.395 415.016 180.844 415.42 181.239C415.037 181.634 414.668 182.12 414.298 182.606C413.499 183.658 412.7 184.709 411.77 184.839C398.13 186.759 384.45 188.419 370.76 190.029C361.918 191.066 353.071 192.026 343.756 193.037C339.693 193.478 335.54 193.928 331.26 194.399C331.088 194.296 330.749 194.096 330.313 193.839Z" fill="#373E5E"/>
<path d="M169.789 407.036C172.49 407.681 175.191 408.325 177.87 409.029V409.019C178.014 408.686 178.158 408.356 178.302 408.025L178.308 408.013C178.452 407.682 178.596 407.352 178.74 407.019C178.381 406.644 178.037 406.251 177.693 405.859C176.974 405.038 176.256 404.218 175.41 403.569C173.634 402.211 171.865 400.843 170.096 399.475L170.093 399.472L170.091 399.471C164.5 395.147 158.908 390.821 153.09 386.819C140.84 378.399 128.96 369.639 120.28 357.289C108.95 341.169 105.04 323.819 112.4 304.969C113.667 301.71 115.402 298.639 117.14 295.562L117.141 295.561C118.186 293.709 119.233 291.856 120.18 289.959C120.277 289.767 120.378 289.573 120.48 289.378L120.48 289.377C121.587 287.256 122.773 284.983 119.44 283.179C117.13 281.929 114.82 280.589 112.79 278.939C109.73 276.449 107.2 276.589 104.61 279.559C83.58 303.689 80.63 333.519 97.19 359.669C110.36 380.469 129.34 393.989 152.2 402.159C157.912 404.2 163.851 405.618 169.789 407.036Z" fill="#373E5E"/>
<path d="M185.185 329.312C185.722 329.51 186.259 329.709 186.77 329.939L186.78 329.969C186.795 330.242 186.807 330.516 186.819 330.789L186.82 330.809C186.833 331.089 186.845 331.369 186.86 331.649C185.963 331.973 185.071 332.315 184.179 332.658C182.207 333.414 180.234 334.171 178.21 334.729C173.58 335.997 173.993 339.343 174.383 342.498L174.383 342.5C174.433 342.901 174.482 343.299 174.52 343.689C174.822 346.746 176.986 346.375 178.934 346.042C179.305 345.978 179.669 345.916 180.01 345.879C189.77 344.809 199.34 343.179 206.45 334.409C208.22 341.019 212.36 345.559 218.42 343.029C225.61 340.029 230.73 340.539 237.3 344.809C240.172 346.671 244.453 346.481 248.616 346.296C250.02 346.233 251.411 346.171 252.73 346.189C253.09 346.193 253.468 346.21 253.855 346.228C256.449 346.346 259.44 346.482 259.91 342.749C260.42 338.759 258.83 335.709 254.47 334.479C253.13 334.096 251.881 333.378 250.345 332.493C249.553 332.038 248.686 331.539 247.69 331.019C248.976 330.309 250.215 329.734 251.359 329.203C253.712 328.11 255.666 327.203 256.81 325.689C258.255 323.779 258.59 320.973 258.908 318.307C258.973 317.762 259.037 317.223 259.11 316.699C259.19 316.129 257.25 314.559 256.43 314.689C255.465 314.839 254.495 314.979 253.525 315.119C245.953 316.213 238.342 317.313 232.43 323.119C231.404 324.123 230.444 325.193 229.834 325.873L229.83 325.878L229.829 325.879L229.824 325.885C229.619 326.114 229.454 326.298 229.34 326.419C227.892 325.65 226.536 324.817 225.229 324.014C222.441 322.301 219.878 320.726 217.12 320.209C212.01 319.239 208.31 322.939 206.2 327.159C205.402 326.225 204.679 325.21 203.973 324.219L203.97 324.214L203.969 324.213C202.445 322.074 200.996 320.04 199.03 319.139C193.5 316.609 187.41 315.199 181.43 313.839C176.53 312.719 173.45 316.089 175.41 320.749C176.381 323.06 178.622 324.916 180.752 326.679L180.754 326.681C181.167 327.023 181.576 327.361 181.97 327.699C182.853 328.452 184.018 328.882 185.185 329.312Z" fill="#373E5E"/>
<path d="M63.203 192.197C45.5505 190.124 27.5403 188.009 9.53003 185.879C9.20816 185.84 8.87524 185.809 8.53888 185.778C7.15091 185.648 5.70398 185.513 4.73004 184.789C3.53003 183.909 2.48004 181.989 2.52002 180.559C2.55002 179.549 4.36002 178.309 5.64001 177.709C6.39001 177.362 7.41965 177.536 8.39328 177.7C8.62695 177.739 8.85742 177.778 9.08002 177.809C28.5484 180.615 48.011 183.438 67.4722 186.262L67.5021 186.266L67.5036 186.266L67.5049 186.266L67.5079 186.267L67.5093 186.267L67.5108 186.267C73.6973 187.165 79.8836 188.062 86.07 188.959C86.2849 188.99 86.5074 189.012 86.731 189.034C87.3604 189.096 87.9983 189.159 88.5 189.439C89.2213 189.838 89.864 190.389 90.5039 190.938C90.7778 191.173 91.0512 191.407 91.33 191.629C91.0282 191.925 90.7411 192.252 90.4541 192.58L90.4534 192.58C89.7898 193.338 89.1276 194.093 88.29 194.449C87.5516 194.765 86.6568 194.708 85.4737 194.632C84.8622 194.593 84.1737 194.549 83.39 194.549L83.4 194.569C76.8077 193.794 70.1436 193.012 63.4275 192.223L63.203 192.197Z" fill="#373E5E"/>
<path d="M9.45996 275.253C9.83826 275.691 10.2044 276.115 10.47 276.509L10.46 276.519C11.3681 276.284 12.118 276.1 12.766 275.941L12.768 275.94C13.8813 275.667 14.6938 275.468 15.49 275.209C19.9284 273.762 24.3672 272.316 28.806 270.871C45.8688 265.315 62.9301 259.759 79.96 254.109C80.5348 253.918 81.2094 253.815 81.894 253.711C84.0439 253.384 86.2923 253.041 85.86 249.909C85.77 249.249 80.61 248.489 78.12 249.099C67.7655 251.64 57.4874 254.465 47.2047 257.291C45.1435 257.858 43.0822 258.425 41.02 258.989C39.8909 259.298 38.7614 259.606 37.6318 259.915L37.6273 259.916L37.6139 259.919L37.5924 259.925C28.7905 262.328 19.9804 264.733 11.28 267.459C9.68997 267.959 7.95999 270.409 7.73999 272.139C7.61371 273.114 8.5704 274.222 9.45996 275.253Z" fill="#373E5E"/>
<path d="M342.44 214.149C342.01 214.149 341.569 214.176 341.128 214.203C340.031 214.271 338.931 214.338 337.99 213.989C336.869 213.569 335.881 212.8 334.891 212.03C334.468 211.701 334.044 211.371 333.61 211.069C334.066 210.771 334.519 210.398 334.97 210.025C335.944 209.221 336.916 208.42 337.92 208.379C348.72 207.949 359.53 207.759 370.34 207.649C380.635 207.546 390.93 207.519 401.23 207.491C404.906 207.482 408.583 207.472 412.26 207.459C412.487 207.459 412.728 207.441 412.972 207.423C413.617 207.375 414.277 207.326 414.72 207.609C415.863 208.343 416.912 209.222 417.961 210.1C418.398 210.466 418.836 210.833 419.28 211.189C418.832 211.604 418.398 212.043 417.965 212.482C416.936 213.523 415.907 214.564 414.69 215.289C413.996 215.703 413.002 215.61 412.011 215.518C411.589 215.478 411.168 215.439 410.77 215.439L342.44 214.149Z" fill="#373E5E"/>
<path d="M76.08 229.219C76.7031 229.219 77.2263 229.184 77.6725 229.154C78.4652 229.101 79.0149 229.064 79.45 229.269C80.5381 229.792 81.5563 230.464 82.5716 231.135C82.9933 231.414 83.4145 231.692 83.84 231.959C83.4147 232.302 82.9994 232.721 82.5836 233.14C81.6796 234.052 80.7738 234.965 79.76 235.109C66.2392 237.076 52.6997 238.93 39.1606 240.784L39.1567 240.784C32.9404 241.636 26.7242 242.487 20.51 243.349C15.58 244.029 10.64 244.739 5.75 245.709C2.91 246.279 1.14999 245.739 0.769989 242.659C0.350006 239.299 2.47 238.319 5.23999 237.989C8.37997 237.612 11.5212 237.241 14.6628 236.87L14.6689 236.869C20.2699 236.208 25.872 235.547 31.47 234.849C42.6703 233.454 53.8651 232.031 64.7043 230.653L64.7055 230.653C68.5469 230.165 72.3436 229.683 76.08 229.209V229.219Z" fill="#373E5E"/>
<path d="M349.903 229.731L343.68 228.859C343.67 228.899 343.66 228.939 343.66 228.979C343.248 228.948 342.83 228.888 342.412 228.828C341.482 228.695 340.556 228.563 339.7 228.749C338.906 228.923 338.191 229.441 337.474 229.959C337.162 230.185 336.849 230.411 336.53 230.609C336.728 230.911 336.91 231.234 337.092 231.557C337.505 232.291 337.919 233.026 338.53 233.519C339.39 234.219 340.62 234.599 341.74 234.779L344.714 235.25C367.512 238.864 390.303 242.476 413.13 245.849C414.097 245.992 415.218 245.1 416.34 244.207C416.865 243.789 417.39 243.371 417.9 243.059C417.519 242.612 417.159 242.079 416.799 241.545C416.007 240.37 415.214 239.193 414.19 238.939C410.955 238.132 407.627 237.725 404.295 237.317C403.002 237.159 401.709 237.001 400.42 236.819C383.584 234.451 366.741 232.09 349.903 229.731Z" fill="#373E5E"/>
<path d="M315.03 159.329C314.841 159.207 314.634 159.073 314.413 158.931C313.679 158.457 312.794 157.886 311.91 157.309C312.187 156.984 312.443 156.613 312.699 156.243C313.246 155.45 313.794 154.656 314.55 154.309C331.308 146.578 348.101 138.915 364.893 131.252L364.898 131.249L364.901 131.248C370.501 128.693 376.101 126.137 381.7 123.579C384.29 122.399 387.04 121.509 388.59 124.729C390.138 127.955 387.406 129.116 385.077 130.106L385.07 130.109C362.91 139.589 340.74 149.049 318.56 158.489C317.973 158.737 317.334 158.861 316.517 159.021C316.082 159.106 315.596 159.2 315.04 159.329H315.03Z" fill="#373E5E"/>
<path d="M91.9666 269.414C92.791 268.763 93.6157 268.111 94.46 267.499H94.45L93.43 265.469C92.9041 265.564 92.3693 265.633 91.8346 265.702C90.6813 265.85 89.529 265.999 88.47 266.409L88.0054 266.588C82.4388 268.728 76.8489 270.878 71.42 273.359C62.1521 277.604 52.9132 281.926 43.6749 286.248L43.6738 286.248L43.6704 286.25L43.6658 286.252C37.5663 289.105 31.4671 291.958 25.36 294.789C22.81 295.969 20.92 297.489 22.26 300.499C23.6362 303.598 25.9592 302.61 28.0482 301.721L28.051 301.72C28.2533 301.634 28.4532 301.549 28.65 301.469C31.4172 300.333 34.1112 299.011 36.7981 297.692C37.0921 297.547 37.386 297.403 37.68 297.259C41.258 295.504 44.8364 293.753 48.4143 292.001L48.4282 291.995L48.4541 291.982L48.4579 291.98C61.115 285.785 73.7648 279.594 86.36 273.269C88.3635 272.26 90.1645 270.837 91.9666 269.414Z" fill="#373E5E"/>
<path d="M410.6 270.209C410.67 274.449 408 276.199 404.39 275.059C388.73 270.109 373.09 265.099 357.46 260.059C356.456 259.736 355.451 259.416 354.446 259.097C349.125 257.402 343.803 255.708 338.63 253.639C337.487 253.18 336.676 251.891 335.864 250.601C335.491 250.007 335.117 249.413 334.71 248.899C335.353 248.768 336.019 248.557 336.684 248.346C338.11 247.893 339.534 247.441 340.72 247.789C362.66 254.339 384.52 261.109 406.38 267.909C407.553 268.274 408.622 268.96 409.532 269.544L409.534 269.544C409.919 269.792 410.276 270.02 410.6 270.199V270.209Z" fill="#373E5E"/>
<path d="M52.394 208.828C49.423 208.833 46.4518 208.839 43.48 208.839L43.47 208.819V208.299C41.8637 208.299 40.2563 208.297 38.6485 208.294C35.4319 208.29 32.2137 208.286 29 208.299C27.0934 208.306 25.1868 208.307 23.2804 208.308C16.8673 208.312 10.4557 208.315 4.04999 208.539C3.1095 208.573 2.19687 209.364 1.28363 210.156C0.856873 210.526 0.429962 210.896 0 211.189C0.360931 211.599 0.699371 212.059 1.03772 212.519L1.03836 212.52C1.80597 213.564 2.57297 214.608 3.60001 215.059C5.15881 215.739 7.11191 215.671 8.93814 215.608C9.12698 215.601 9.31445 215.595 9.5 215.589C15.2138 215.416 20.9276 215.213 26.6413 215.01C35.4976 214.695 44.3538 214.379 53.21 214.179C57.744 214.075 62.2805 214.106 66.8159 214.137C71.4331 214.168 76.0491 214.2 80.66 214.089C81.8142 214.062 82.9498 213.33 84.0858 212.598C84.6131 212.258 85.1406 211.918 85.67 211.649C85.1742 211.354 84.6784 210.982 84.1819 210.61C83.0965 209.796 82.0078 208.979 80.91 208.959C71.4018 208.791 61.8994 208.809 52.394 208.828Z" fill="#373E5E"/>
<path d="M322.89 176.579C322.09 175.859 321.03 174.909 319.97 173.959C320.318 173.652 320.651 173.291 320.983 172.929L320.984 172.929C321.693 172.158 322.403 171.387 323.26 171.149C332.436 168.612 341.634 166.143 350.833 163.673C357.805 161.802 364.777 159.93 371.74 158.029C376.571 156.71 381.379 155.315 386.188 153.921C390.457 152.682 394.726 151.444 399.01 150.259C402.04 149.419 404.88 149.849 405.56 153.549C406.096 156.451 404.164 156.784 402.248 157.114C401.84 157.184 401.433 157.254 401.05 157.349C382.577 161.896 364.11 166.462 345.644 171.026L345.622 171.032C339.935 172.438 334.247 173.844 328.56 175.249C327.562 175.498 326.556 175.732 325.347 176.014C324.616 176.184 323.812 176.371 322.89 176.589V176.579Z" fill="#373E5E"/>
<path d="M331.205 265.505C330.415 265.392 329.625 265.28 328.86 265.119C328.647 265.606 328.428 266.086 328.208 266.57L328 267.029C328.352 267.365 328.689 267.732 329.025 268.098L329.027 268.1C329.76 268.898 330.493 269.696 331.39 270.189C350.61 280.709 369.87 291.159 389.17 301.539C391.31 302.689 394.31 304.049 395.47 300.759C395.89 299.569 393.84 296.599 392.23 295.749C373.6 285.909 354.87 276.259 336.08 266.729C334.623 265.99 332.914 265.747 331.205 265.505Z" fill="#373E5E"/>
<path d="M303.502 142.673C303.796 142.867 304.092 143.061 304.32 143.239H304.33C304.66 143.054 304.963 142.889 305.246 142.735C305.803 142.432 306.282 142.171 306.74 141.879C310.233 139.665 313.728 137.455 317.224 135.246L317.228 135.243L317.23 135.242C327.043 129.038 336.857 122.835 346.61 116.539C351.06 113.669 355.35 110.499 359.43 107.119C360.12 106.552 360.297 105.363 360.473 104.172C360.555 103.621 360.637 103.069 360.77 102.579C360.277 102.488 359.782 102.366 359.287 102.243C358.144 101.96 357.002 101.677 355.9 101.789C355.018 101.879 354.181 102.533 353.359 103.175C353.081 103.392 352.805 103.607 352.53 103.799C342.05 111.099 331.57 118.399 321.12 125.739C315.42 129.739 309.72 133.759 304.16 137.949C303.16 138.699 302.65 140.299 302.3 141.609C302.239 141.841 302.868 142.255 303.502 142.673Z" fill="#373E5E"/>
<path d="M365.58 324.759C359.73 324.359 355.03 321.369 350.91 317.299C350.42 316.809 350.34 315.009 350.75 314.699C351.55 314.079 353.21 313.509 353.84 313.929C357.156 316.132 360.374 318.49 363.591 320.846C364.623 321.602 365.655 322.358 366.69 323.109C366.32 323.659 365.95 324.209 365.58 324.769V324.759Z" fill="#373E5E"/>
</svg>
